<svg width="855" height="311" viewBox="0 0 855 311" fill="none" xmlns="http://www.w3.org/2000/svg">
<path d="M53.4987 140.358C44.6275 140.358 36.2994 138.909 28.5145 136.013C20.7296 133.026 13.9857 128.771 8.28279 123.249C6.92496 121.891 6.24604 120.352 6.24604 118.632C6.24604 116.641 7.15126 114.74 8.96171 112.93C10.4101 111.481 11.9942 110.757 13.7141 110.757C15.5246 110.757 17.6971 111.798 20.2317 113.88C24.4863 117.773 29.5103 120.805 35.3037 122.978C41.1876 125.06 47.2526 126.101 53.4987 126.101C59.4731 126.101 64.135 125.105 67.4844 123.113C70.8337 121.031 72.5084 118.135 72.5084 114.423C72.5084 110.531 70.6979 107.408 67.077 105.054C63.4561 102.61 57.3006 100.438 48.6105 98.5365C34.9416 95.5493 24.9842 91.6116 18.7381 86.7234C12.5826 81.8352 9.50484 75.5439 9.50484 67.8495C9.50484 62.9613 11.1342 58.6162 14.393 54.8143C17.6518 50.9218 22.178 47.9346 27.9714 45.8526C33.8553 43.68 40.554 42.5938 48.0673 42.5938C56.4859 42.5938 63.954 43.9969 70.4716 46.803C77.0797 49.5187 82.1037 53.3659 85.5436 58.3446C86.7204 60.2456 87.3087 61.875 87.3087 63.2328C87.2182 65.4959 86.0867 67.4421 83.9142 69.0715C82.7374 69.8862 81.3795 70.2936 79.8407 70.2936C77.0345 70.2936 74.7262 69.2073 72.9157 67.0348C70.2906 63.8665 66.7602 61.3771 62.3246 59.5667C57.9795 57.7562 53.2271 56.851 48.0673 56.851C41.6403 56.851 36.6163 57.8468 32.9954 59.8383C29.465 61.7392 27.6998 64.4096 27.6998 67.8495C27.6998 71.2893 29.4197 74.1408 32.8596 76.4038C36.39 78.5764 42.455 80.6584 51.0546 82.6499C60.5594 84.9129 68.2085 87.4928 74.002 90.3895C79.7954 93.1957 84.0047 96.545 86.6298 100.438C89.3455 104.33 90.7033 108.992 90.7033 114.423C90.7033 119.583 89.1645 124.154 86.0867 128.137C83.0089 132.03 78.6639 135.062 73.0515 137.235C67.4391 139.317 60.9215 140.358 53.4987 140.358ZM146.221 140.358C137.712 140.358 130.244 138.638 123.816 135.198C117.48 131.758 112.546 126.87 109.016 120.533C105.576 114.106 103.856 106.548 103.856 97.8576V50.7408C103.856 48.2061 104.671 46.2147 106.3 44.7663C107.93 43.3179 110.102 42.5938 112.818 42.5938C115.534 42.5938 117.706 43.3632 119.336 44.9021C121.056 46.3504 121.915 48.2967 121.915 50.7408V98.265C121.915 107.227 124.043 114.106 128.297 118.904C132.552 123.702 138.662 126.101 146.628 126.101C154.504 126.101 160.569 123.702 164.823 118.904C169.168 114.016 171.341 107.136 171.341 98.265V50.7408C171.341 48.2967 172.155 46.3504 173.785 44.9021C175.505 43.3632 177.722 42.5938 180.438 42.5938C183.154 42.5938 185.326 43.3179 186.956 44.7663C188.585 46.2147 189.4 48.2061 189.4 50.7408V97.8576C189.4 106.276 187.589 113.699 183.969 120.126C180.438 126.553 175.414 131.532 168.897 135.062C162.379 138.593 154.82 140.358 146.221 140.358ZM212.948 140.358C210.232 140.358 208.059 139.634 206.43 138.185C204.801 136.737 203.986 134.745 203.986 132.211V64.0475C203.986 57.711 205.796 52.7775 209.417 49.2471C213.129 45.7168 218.243 43.9516 224.761 43.9516H247.708C261.468 43.9516 271.923 46.803 279.074 52.506C286.225 58.2089 289.801 66.5822 289.801 77.6259C289.801 88.6696 286.316 97.0429 279.346 102.746C272.376 108.449 262.101 111.3 248.523 111.3H222.045V132.211C222.045 134.655 221.185 136.646 219.465 138.185C217.836 139.634 215.663 140.358 212.948 140.358ZM248.387 97.3145C263.866 97.3145 271.606 90.7516 271.606 77.6259C271.606 64.5002 263.866 57.9373 248.387 57.9373H227.884C226.073 57.9373 224.625 58.5257 223.539 59.7025C222.543 60.8793 222.045 62.5087 222.045 64.5907V97.3145H248.387ZM303.702 64.0475C303.702 57.711 305.512 52.7775 309.133 49.2471C312.845 45.7168 317.959 43.9516 324.477 43.9516H348.646C362.134 43.9516 372.318 46.5767 379.198 51.827C386.077 57.0773 389.517 64.9075 389.517 75.3176C389.517 85.0035 386.62 92.5621 380.827 97.9934C375.124 103.425 367.43 106.14 357.744 106.14L378.383 126.644C380.012 128.273 380.827 130.129 380.827 132.211C380.827 134.383 379.876 136.284 377.975 137.914C375.984 139.453 374.038 140.222 372.137 140.222C369.512 140.222 367.113 139.045 364.94 136.692L335.611 106.684H321.761V132.211C321.761 134.745 320.901 136.737 319.181 138.185C317.461 139.634 315.289 140.358 312.664 140.358C309.948 140.358 307.775 139.634 306.146 138.185C304.517 136.737 303.702 134.745 303.702 132.211V64.0475ZM348.103 92.6978C354.078 92.6978 358.739 92.1095 362.089 90.9327C365.438 89.7559 367.792 87.9454 369.15 85.5013C370.598 82.9667 371.322 79.5721 371.322 75.3176C371.322 69.1621 369.421 64.7265 365.619 62.0108C361.908 59.2951 356.069 57.9373 348.103 57.9373H327.6C325.789 57.9373 324.341 58.5257 323.255 59.7025C322.259 60.8793 321.761 62.5087 321.761 64.5907V92.6978H348.103ZM411.701 140.222C408.985 140.222 406.812 139.498 405.183 138.05C403.554 136.601 402.739 134.61 402.739 132.075V84.5508C402.739 71.4251 406.496 61.1508 414.009 53.728C421.522 46.3052 431.978 42.5938 445.375 42.5938C454.156 42.5938 461.759 44.2684 468.187 47.6177C474.614 50.9671 479.502 55.81 482.851 62.1466C486.291 68.4831 488.011 75.9512 488.011 84.5508V132.075C488.011 134.61 487.196 136.601 485.567 138.05C483.937 139.498 481.765 140.222 479.049 140.222C476.334 140.222 474.116 139.498 472.396 138.05C470.766 136.511 469.952 134.519 469.952 132.075V109.942H420.798V132.075C420.798 134.519 419.938 136.511 418.218 138.05C416.589 139.498 414.416 140.222 411.701 140.222ZM469.952 95.9567V84.1435C469.952 75.0913 467.87 68.3021 463.706 63.776C459.632 59.1593 453.522 56.851 445.375 56.851C428.99 56.851 420.798 65.9485 420.798 84.1435V95.9567H469.952Z" fill="white"/>
<path d="M526.225 140.358C523.51 140.358 521.337 139.634 519.708 138.185C518.078 136.737 517.264 134.745 517.264 132.211V76.2681C517.264 65.7675 520.251 57.5299 526.225 51.5555C532.2 45.581 540.437 42.5938 550.938 42.5938C556.007 42.5938 560.76 43.8611 565.195 46.3957C569.721 48.8398 573.614 52.3702 576.872 56.9868C580.041 52.2796 583.843 48.704 588.278 46.2599C592.804 43.8158 597.693 42.5938 602.943 42.5938C613.443 42.5938 621.681 45.581 627.655 51.5555C633.63 57.5299 636.617 65.7675 636.617 76.2681V132.211C636.617 134.655 635.757 136.646 634.037 138.185C632.408 139.634 630.235 140.358 627.52 140.358C624.804 140.358 622.631 139.634 621.002 138.185C619.373 136.737 618.558 134.745 618.558 132.211V76.2681C618.558 69.3884 617.291 64.4549 614.756 61.4677C612.221 58.3899 608.057 56.851 602.264 56.851C597.014 56.851 592.94 58.5257 590.043 61.875C587.237 65.2243 585.834 70.022 585.834 76.2681V132.211C585.834 134.745 585.019 136.737 583.39 138.185C581.761 139.634 579.588 140.358 576.872 140.358C574.157 140.358 571.984 139.634 570.355 138.185C568.816 136.737 568.047 134.745 568.047 132.211V76.2681C568.047 70.2031 566.598 65.4506 563.701 62.0108C560.805 58.5709 556.777 56.851 551.617 56.851C545.823 56.851 541.659 58.3899 539.125 61.4677C536.59 64.4549 535.323 69.3884 535.323 76.2681V132.211C535.323 134.655 534.463 136.646 532.743 138.185C531.113 139.634 528.941 140.358 526.225 140.358ZM673.579 139C666.699 139 661.358 137.19 657.556 133.569C653.755 129.948 651.854 124.879 651.854 118.361V64.0475C651.854 57.711 653.664 52.7775 657.285 49.2471C660.996 45.7168 666.111 43.9516 672.628 43.9516H714.857C717.573 43.9516 719.655 44.5852 721.103 45.8526C722.551 47.0293 723.276 48.7493 723.276 51.0123C723.276 53.1849 722.506 54.9048 720.967 56.1721C719.519 57.3489 717.482 57.9373 714.857 57.9373H675.751C673.941 57.9373 672.493 58.5257 671.406 59.7025C670.411 60.8793 669.913 62.5087 669.913 64.5907V83.4646H704.538C707.253 83.4646 709.335 84.0982 710.784 85.3655C712.232 86.5423 712.956 88.2623 712.956 90.5253C712.956 92.6978 712.187 94.4178 710.648 95.6851C709.199 96.8619 707.163 97.4503 704.538 97.4503H669.913V118.361C669.913 120.443 670.411 122.072 671.406 123.249C672.493 124.426 673.941 125.014 675.751 125.014H717.844C720.56 125.014 722.642 125.648 724.09 126.915C725.539 128.092 726.263 129.812 726.263 132.075C726.263 134.248 725.493 135.968 723.955 137.235C722.506 138.412 720.469 139 717.844 139H673.579ZM761.891 139C755.011 139 749.671 137.19 745.869 133.569C742.067 129.948 740.166 124.879 740.166 118.361V64.0475C740.166 57.711 741.976 52.7775 745.597 49.2471C749.309 45.7168 754.423 43.9516 760.941 43.9516H779.95C790.36 43.9516 799.367 45.8526 806.971 49.6545C814.575 53.4564 820.369 58.933 824.352 66.0843C828.425 73.2356 830.462 81.7446 830.462 91.6116C830.462 101.479 828.425 109.988 824.352 117.139C820.369 124.2 814.575 129.631 806.971 133.433C799.458 137.144 790.451 139 779.95 139H761.891ZM778.593 125.014C789.908 125.014 798.326 122.299 803.848 116.867C809.37 111.345 812.131 102.927 812.131 91.6116C812.131 80.2963 809.325 71.8777 803.712 66.3559C798.191 60.7435 789.817 57.9373 778.593 57.9373H764.064C762.253 57.9373 760.805 58.5257 759.719 59.7025C758.723 60.8793 758.225 62.5087 758.225 64.5907V118.361C758.225 120.443 758.723 122.072 759.719 123.249C760.805 124.426 762.253 125.014 764.064 125.014H778.593Z" fill="white"/>
<g clip-path="url(#clip0_764_212)">
<path d="M458.333 177.389C458.333 180.115 457.25 182.729 455.323 184.656C453.396 186.584 450.781 187.667 448.056 187.667H406.944C404.219 187.667 401.604 186.584 399.677 184.656C397.75 182.729 396.667 180.115 396.667 177.389V136.278C396.667 133.552 397.75 130.938 399.677 129.01C401.604 127.083 404.219 126 406.944 126H448.056C450.781 126 453.396 127.083 455.323 129.01C457.25 130.938 458.333 133.552 458.333 136.278V177.389ZM335 197.944V300.722C335 303.448 336.083 306.062 338.01 307.99C339.938 309.917 342.552 311 345.278 311H509.722C512.448 311 515.062 309.917 516.99 307.99C518.917 306.062 520 303.448 520 300.722V197.944H335Z" fill="#CCD6DD"/>
<path d="M427.5 187.667H345.278C342.552 187.667 339.938 188.749 338.01 190.677C336.083 192.604 335 195.218 335 197.944H437.778C437.778 195.218 436.695 192.604 434.767 190.677C432.84 188.749 430.226 187.667 427.5 187.667Z" fill="#99AAB5"/>
<path d="M509.722 187.667H427.5C424.774 187.667 422.16 188.749 420.232 190.677C418.305 192.604 417.222 195.218 417.222 197.944H520C520 195.218 518.917 192.604 516.99 190.677C515.062 188.749 512.448 187.667 509.722 187.667Z" fill="#99AAB5"/>
<path d="M345.278 239.056H509.722V259.611H345.278V239.056ZM345.278 208.222H509.722V228.778H345.278V208.222ZM345.278 269.889H509.722V290.444H345.278V269.889Z" fill="#55ACEE"/>
<path d="M376.111 187.667H478.889V311H376.111V187.667Z" fill="#E1E8ED"/>
<path d="M386.389 228.778H468.611V249.333H386.389V228.778ZM386.389 197.944H468.611V218.5H386.389V197.944ZM386.389 259.611H468.611V280.167H386.389V259.611Z" fill="#55ACEE"/>
<path d="M401.806 290.444H453.195V311H401.806V290.444Z" fill="#3B88C3"/>
<path d="M448.055 146.555H432.639V131.139H422.361V146.555H406.944V156.833H422.361V172.25H432.639V156.833H448.055V146.555Z" fill="#DD2E44"/>
<path d="M468.611 177.389H386.389C383.663 177.389 381.049 178.472 379.121 180.399C377.194 182.326 376.111 184.941 376.111 187.666H478.889C478.889 184.941 477.806 182.326 475.879 180.399C473.951 178.472 471.337 177.389 468.611 177.389Z" fill="#99AAB5"/>
</g>
<defs>
<clipPath id="clip0_764_212">
<rect width="185" height="185" fill="white" transform="translate(335 126)"/>
</clipPath>
</defs>
</svg>
